<svg width="234" height="234" viewBox="0 0 234 234" fill="none" xmlns="http://www.w3.org/2000/svg">
<mask id="path-1-inside-1_1_11" fill="white">
<path fill-rule="evenodd" clip-rule="evenodd" d="M234 117C234 181.617 181.617 234 117 234C52.3827 234 0 181.617 0 117C0 52.3827 52.3827 0 117 0C181.617 0 234 52.3827 234 117ZM178.525 195.839C161.558 209.098 140.202 217 117 217C61.7715 217 17 172.228 17 117C17 93.798 24.9018 72.4415 38.1612 55.4749L178.525 195.839ZM190.318 185.004L48.9958 43.6821C66.8394 27.124 90.7374 17 117 17C172.228 17 217 61.7715 217 117C217 143.263 206.876 167.161 190.318 185.004Z"/>
</mask>
<path fill-rule="evenodd" clip-rule="evenodd" d="M234 117C234 181.617 181.617 234 117 234C52.3827 234 0 181.617 0 117C0 52.3827 52.3827 0 117 0C181.617 0 234 52.3827 234 117ZM178.525 195.839C161.558 209.098 140.202 217 117 217C61.7715 217 17 172.228 17 117C17 93.798 24.9018 72.4415 38.1612 55.4749L178.525 195.839ZM190.318 185.004L48.9958 43.6821C66.8394 27.124 90.7374 17 117 17C172.228 17 217 61.7715 217 117C217 143.263 206.876 167.161 190.318 185.004Z" fill="#FF2323"/>
<path d="M178.525 195.839L180.372 198.203L183.044 196.115L180.646 193.717L178.525 195.839ZM38.1612 55.4749L40.2825 53.3536L37.8851 50.9562L35.7974 53.6276L38.1612 55.4749ZM48.9958 43.6821L46.9552 41.483L44.6724 43.6013L46.8745 45.8034L48.9958 43.6821ZM190.318 185.004L188.197 187.126L190.399 189.328L192.517 187.045L190.318 185.004ZM117 237C183.274 237 237 183.274 237 117H231C231 179.96 179.96 231 117 231V237ZM-3 117C-3 183.274 50.7258 237 117 237V231C54.0395 231 3 179.96 3 117H-3ZM117 -3C50.7258 -3 -3 50.7258 -3 117H3C3 54.0395 54.0395 3 117 3V-3ZM237 117C237 50.7258 183.274 -3 117 -3V3C179.96 3 231 54.0395 231 117H237ZM117 220C140.895 220 162.897 211.86 180.372 198.203L176.678 193.475C160.22 206.337 139.509 214 117 214V220ZM14 117C14 173.885 60.1147 220 117 220V214C63.4284 214 20 170.572 20 117H14ZM35.7974 53.6276C22.1404 71.103 14 93.105 14 117H20C20 94.4909 27.6632 73.78 40.525 57.3222L35.7974 53.6276ZM180.646 193.717L40.2825 53.3536L36.0399 57.5962L176.404 197.96L180.646 193.717ZM46.8745 45.8034L188.197 187.126L192.439 182.883L51.1171 41.5608L46.8745 45.8034ZM117 14C89.9511 14 65.3317 24.4304 46.9552 41.483L51.0364 45.8811C68.3472 29.8175 91.5237 20 117 20V14ZM220 117C220 60.1147 173.885 14 117 14V20C170.572 20 214 63.4284 214 117H220ZM192.517 187.045C209.57 168.668 220 144.049 220 117H214C214 142.476 204.183 165.653 188.119 182.964L192.517 187.045Z" fill="black" mask="url(#path-1-inside-1_1_11)"/>
</svg>
